<mxfile host="app.diagrams.net" modified="2023-09-29T17:41:15.956Z" agent="Mozilla/5.0 (Macintosh; Intel Mac OS X 10_15_7) AppleWebKit/537.36 (KHTML, like Gecko) Chrome/117.0.0.0 Safari/537.36" etag="60uKsqRc04L-tgouTSdK" version="21.8.1" type="github">
  <diagram name="Page-1" id="mzQLIA4ouWposkEKi41c">
    <mxGraphModel dx="1407" dy="551" grid="1" gridSize="10" guides="1" tooltips="1" connect="0" arrows="0" fold="1" page="1" pageScale="1" pageWidth="850" pageHeight="1100" math="0" shadow="0">
      <root>
        <mxCell id="0" />
        <mxCell id="1" parent="0" />
        <mxCell id="cxqOgGLeQ5vUTtqALXu8-51" value="" style="endArrow=classic;html=1;rounded=0;" edge="1" parent="1">
          <mxGeometry width="50" height="50" relative="1" as="geometry">
            <mxPoint x="320" y="80" as="sourcePoint" />
            <mxPoint x="320" y="560" as="targetPoint" />
          </mxGeometry>
        </mxCell>
        <mxCell id="cxqOgGLeQ5vUTtqALXu8-45" value="" style="endArrow=classic;html=1;rounded=0;" edge="1" parent="1">
          <mxGeometry width="50" height="50" relative="1" as="geometry">
            <mxPoint x="720" y="80" as="sourcePoint" />
            <mxPoint x="720" y="560" as="targetPoint" />
          </mxGeometry>
        </mxCell>
        <mxCell id="cxqOgGLeQ5vUTtqALXu8-44" value="" style="endArrow=classic;html=1;rounded=0;" edge="1" parent="1">
          <mxGeometry width="50" height="50" relative="1" as="geometry">
            <mxPoint x="520" y="80" as="sourcePoint" />
            <mxPoint x="520" y="560" as="targetPoint" />
          </mxGeometry>
        </mxCell>
        <mxCell id="cxqOgGLeQ5vUTtqALXu8-43" value="" style="endArrow=classic;html=1;rounded=0;" edge="1" parent="1">
          <mxGeometry width="50" height="50" relative="1" as="geometry">
            <mxPoint x="120" y="80" as="sourcePoint" />
            <mxPoint x="120" y="560" as="targetPoint" />
          </mxGeometry>
        </mxCell>
        <mxCell id="cxqOgGLeQ5vUTtqALXu8-11" value="process&lt;br&gt;frame 1" style="rounded=0;whiteSpace=wrap;html=1;align=center;" vertex="1" parent="1">
          <mxGeometry x="435" y="210" width="85" height="40" as="geometry" />
        </mxCell>
        <mxCell id="cxqOgGLeQ5vUTtqALXu8-10" value="get&lt;br&gt;frame 1" style="rounded=0;whiteSpace=wrap;html=1;" vertex="1" parent="1">
          <mxGeometry x="235" y="130" width="85" height="40" as="geometry" />
        </mxCell>
        <mxCell id="cxqOgGLeQ5vUTtqALXu8-52" value="" style="endArrow=classic;html=1;rounded=0;" edge="1" parent="1">
          <mxGeometry width="50" height="50" relative="1" as="geometry">
            <mxPoint x="120" y="110" as="sourcePoint" />
            <mxPoint x="320" y="110" as="targetPoint" />
          </mxGeometry>
        </mxCell>
        <mxCell id="cxqOgGLeQ5vUTtqALXu8-53" value="&lt;font style=&quot;font-size: 12px;&quot;&gt;start&lt;/font&gt;" style="edgeLabel;html=1;align=center;verticalAlign=middle;resizable=0;points=[];" vertex="1" connectable="0" parent="cxqOgGLeQ5vUTtqALXu8-52">
          <mxGeometry x="0.3651" y="-1" relative="1" as="geometry">
            <mxPoint x="-37" as="offset" />
          </mxGeometry>
        </mxCell>
        <mxCell id="cxqOgGLeQ5vUTtqALXu8-56" value="" style="endArrow=classic;html=1;rounded=0;" edge="1" parent="1">
          <mxGeometry width="50" height="50" relative="1" as="geometry">
            <mxPoint x="320" y="190" as="sourcePoint" />
            <mxPoint x="520" y="190" as="targetPoint" />
          </mxGeometry>
        </mxCell>
        <mxCell id="cxqOgGLeQ5vUTtqALXu8-57" value="&lt;font style=&quot;font-size: 12px;&quot;&gt;copy frame to filter&lt;/font&gt;" style="edgeLabel;html=1;align=center;verticalAlign=middle;resizable=0;points=[];" vertex="1" connectable="0" parent="cxqOgGLeQ5vUTtqALXu8-56">
          <mxGeometry x="0.3651" y="-1" relative="1" as="geometry">
            <mxPoint x="-37" as="offset" />
          </mxGeometry>
        </mxCell>
        <mxCell id="cxqOgGLeQ5vUTtqALXu8-58" value="" style="endArrow=classic;html=1;rounded=0;" edge="1" parent="1">
          <mxGeometry width="50" height="50" relative="1" as="geometry">
            <mxPoint x="520" y="270" as="sourcePoint" />
            <mxPoint x="720" y="270" as="targetPoint" />
          </mxGeometry>
        </mxCell>
        <mxCell id="cxqOgGLeQ5vUTtqALXu8-59" value="&lt;font style=&quot;font-size: 12px;&quot;&gt;copy processed frame to sink&lt;/font&gt;" style="edgeLabel;html=1;align=center;verticalAlign=middle;resizable=0;points=[];" vertex="1" connectable="0" parent="cxqOgGLeQ5vUTtqALXu8-58">
          <mxGeometry x="0.3651" y="-1" relative="1" as="geometry">
            <mxPoint x="-37" as="offset" />
          </mxGeometry>
        </mxCell>
        <mxCell id="cxqOgGLeQ5vUTtqALXu8-60" value="get&lt;br&gt;frame 2" style="rounded=0;whiteSpace=wrap;html=1;" vertex="1" parent="1">
          <mxGeometry x="235" y="290" width="85" height="40" as="geometry" />
        </mxCell>
        <mxCell id="cxqOgGLeQ5vUTtqALXu8-61" value="write&lt;br&gt;frame 1" style="rounded=0;whiteSpace=wrap;html=1;" vertex="1" parent="1">
          <mxGeometry x="635" y="290" width="85" height="40" as="geometry" />
        </mxCell>
        <mxCell id="cxqOgGLeQ5vUTtqALXu8-62" value="" style="endArrow=classic;html=1;rounded=0;" edge="1" parent="1">
          <mxGeometry width="50" height="50" relative="1" as="geometry">
            <mxPoint x="320" y="350" as="sourcePoint" />
            <mxPoint x="520" y="350" as="targetPoint" />
          </mxGeometry>
        </mxCell>
        <mxCell id="cxqOgGLeQ5vUTtqALXu8-63" value="&lt;font style=&quot;font-size: 12px;&quot;&gt;copy frame to filter&lt;/font&gt;" style="edgeLabel;html=1;align=center;verticalAlign=middle;resizable=0;points=[];" vertex="1" connectable="0" parent="cxqOgGLeQ5vUTtqALXu8-62">
          <mxGeometry x="0.3651" y="-1" relative="1" as="geometry">
            <mxPoint x="-37" as="offset" />
          </mxGeometry>
        </mxCell>
        <mxCell id="cxqOgGLeQ5vUTtqALXu8-64" value="process&lt;br&gt;frame 2" style="rounded=0;whiteSpace=wrap;html=1;align=center;" vertex="1" parent="1">
          <mxGeometry x="435" y="370" width="85" height="40" as="geometry" />
        </mxCell>
        <mxCell id="cxqOgGLeQ5vUTtqALXu8-65" value="write&lt;br&gt;frame 2" style="rounded=0;whiteSpace=wrap;html=1;" vertex="1" parent="1">
          <mxGeometry x="635" y="450" width="85" height="40" as="geometry" />
        </mxCell>
        <mxCell id="cxqOgGLeQ5vUTtqALXu8-66" value="" style="endArrow=classic;html=1;rounded=0;" edge="1" parent="1">
          <mxGeometry width="50" height="50" relative="1" as="geometry">
            <mxPoint x="520" y="430" as="sourcePoint" />
            <mxPoint x="720" y="430" as="targetPoint" />
          </mxGeometry>
        </mxCell>
        <mxCell id="cxqOgGLeQ5vUTtqALXu8-67" value="&lt;font style=&quot;font-size: 12px;&quot;&gt;copy processed frame to sink&lt;/font&gt;" style="edgeLabel;html=1;align=center;verticalAlign=middle;resizable=0;points=[];" vertex="1" connectable="0" parent="cxqOgGLeQ5vUTtqALXu8-66">
          <mxGeometry x="0.3651" y="-1" relative="1" as="geometry">
            <mxPoint x="-37" as="offset" />
          </mxGeometry>
        </mxCell>
        <mxCell id="cxqOgGLeQ5vUTtqALXu8-69" value="get&lt;br&gt;frame 3" style="rounded=0;whiteSpace=wrap;html=1;" vertex="1" parent="1">
          <mxGeometry x="235" y="450" width="85" height="40" as="geometry" />
        </mxCell>
        <mxCell id="cxqOgGLeQ5vUTtqALXu8-74" value="" style="endArrow=classic;html=1;rounded=0;" edge="1" parent="1">
          <mxGeometry width="50" height="50" relative="1" as="geometry">
            <mxPoint x="320" y="510" as="sourcePoint" />
            <mxPoint x="520" y="510" as="targetPoint" />
          </mxGeometry>
        </mxCell>
        <mxCell id="cxqOgGLeQ5vUTtqALXu8-75" value="&lt;font style=&quot;font-size: 12px;&quot;&gt;copy frame to filter&lt;/font&gt;" style="edgeLabel;html=1;align=center;verticalAlign=middle;resizable=0;points=[];" vertex="1" connectable="0" parent="cxqOgGLeQ5vUTtqALXu8-74">
          <mxGeometry x="0.3651" y="-1" relative="1" as="geometry">
            <mxPoint x="-37" as="offset" />
          </mxGeometry>
        </mxCell>
        <mxCell id="cxqOgGLeQ5vUTtqALXu8-76" value="Client" style="text;html=1;strokeColor=none;fillColor=none;align=center;verticalAlign=middle;whiteSpace=wrap;rounded=0;" vertex="1" parent="1">
          <mxGeometry x="90" y="50" width="60" height="30" as="geometry" />
        </mxCell>
        <mxCell id="cxqOgGLeQ5vUTtqALXu8-77" value="Source" style="text;html=1;strokeColor=none;fillColor=none;align=center;verticalAlign=middle;whiteSpace=wrap;rounded=0;" vertex="1" parent="1">
          <mxGeometry x="290" y="50" width="60" height="30" as="geometry" />
        </mxCell>
        <mxCell id="cxqOgGLeQ5vUTtqALXu8-78" value="Filter" style="text;html=1;strokeColor=none;fillColor=none;align=center;verticalAlign=middle;whiteSpace=wrap;rounded=0;" vertex="1" parent="1">
          <mxGeometry x="490" y="50" width="60" height="30" as="geometry" />
        </mxCell>
        <mxCell id="cxqOgGLeQ5vUTtqALXu8-79" value="Sink" style="text;html=1;strokeColor=none;fillColor=none;align=center;verticalAlign=middle;whiteSpace=wrap;rounded=0;" vertex="1" parent="1">
          <mxGeometry x="690" y="50" width="60" height="30" as="geometry" />
        </mxCell>
      </root>
    </mxGraphModel>
  </diagram>
</mxfile>
